<svg xmlns="http://www.w3.org/2000/svg" version="1.1" xmlns:xlink="http://www.w3.org/1999/xlink" xmlns:svgjs="http://svgjs.dev/svgjs" width="345" height="395.7"><svg version="1.1" id="SvgjsSvg1170" x="0px" y="0px" viewBox="0 0 345 395.7" style="enable-background:new 0 0 345 395.7;" xml:space="preserve" sodipodi:docname="logo.svg" inkscape:version="1.3.2 (091e20e, 2023-11-25)" xmlns:inkscape="http://www.inkscape.org/namespaces/inkscape" xmlns:sodipodi="http://sodipodi.sourceforge.net/DTD/sodipodi-0.dtd" xmlns:xlink="http://www.w3.org/1999/xlink" xmlns="http://www.w3.org/2000/svg" xmlns:svg="http://www.w3.org/2000/svg"><defs id="SvgjsDefs1169"></defs><sodipodi:namedview id="SvgjsSodipodi:namedview1168" pagecolor="#ffffff" bordercolor="#e95420" borderopacity="0.25" inkscape:showpageshadow="2" inkscape:pageopacity="0.0" inkscape:pagecheckerboard="0" inkscape:deskcolor="#e95420" inkscape:zoom="1.3220161" inkscape:cx="145.23272" inkscape:cy="195.15647" inkscape:window-width="1592" inkscape:window-height="761" inkscape:window-x="73" inkscape:window-y="224" inkscape:window-maximized="0" inkscape:current-layer="Layer_1"></sodipodi:namedview>
<style type="text/css" id="SvgjsStyle1167">
	.st0{fill:#ffffff;}
	.st1{clip-path:url(#SVGID_4_);}
	.st2{clip-path:url(#SVGID_6_);fill:#e95420;}
	.st3{clip-path:url(#SVGID_8_);fill:#e95420;}
	.st4{clip-path:url(#SVGID_10_);fill:#e95420;}
	.st5{clip-path:url(#SVGID_12_);fill:#e95420;}
	.st6{clip-path:url(#SVGID_14_);fill:#e95420;}
	.st7{clip-path:url(#SVGID_16_);fill:#e95420;}
	.st8{clip-path:url(#SVGID_18_);fill:#e95420;}
	.st9{clip-path:url(#SVGID_20_);fill:#e95420;}
	.st10{clip-path:url(#SVGID_22_);fill:#e95420;}
	.st11{clip-path:url(#SVGID_24_);fill:#e95420;}
	.st12{clip-path:url(#SVGID_26_);fill:#ffffff;}
	.st13{clip-path:url(#SVGID_28_);fill:#e95420;}
	.st14{clip-path:url(#SVGID_30_);fill:#ffffff;}
	.st15{clip-path:url(#SVGID_32_);fill:#ffffff;}
	.st16{clip-path:url(#SVGID_34_);fill:#e95420;}
	.st17{clip-path:url(#SVGID_36_);fill:#e95420;}
	.st18{clip-path:url(#SVGID_38_);fill:#e95420;}
	.st19{clip-path:url(#SVGID_40_);fill:#e95420;}
	.st20{clip-path:url(#SVGID_42_);fill:#e95420;}
	.st21{clip-path:url(#SVGID_44_);fill:#e95420;}
	.st22{clip-path:url(#SVGID_46_);fill:#e95420;}
	.st23{clip-path:url(#SVGID_48_);fill:#e95420;}
	.st24{clip-path:url(#SVGID_50_);fill:#e95420;}
	.st25{clip-path:url(#SVGID_52_);fill:#e95420;}
	.st26{clip-path:url(#SVGID_54_);fill:#e95420;}
	.st27{clip-path:url(#SVGID_56_);fill:#e95420;}
	.st28{clip-path:url(#SVGID_58_);fill:#e95420;}
	.st29{clip-path:url(#SVGID_60_);fill:#e95420;}
	.st30{clip-path:url(#SVGID_62_);fill:#e95420;}
	.st31{clip-path:url(#SVGID_64_);fill:#ffffff;}
	.st32{display:none;}
	.st33{display:inline;}
	.st34{display:none;opacity:0.9;clip-path:url(#SVGID_66_);fill:#ffffff;enable-background:new    ;}
	.st35{opacity:0.875;clip-path:url(#SVGID_68_);fill:#ffffff;enable-background:new    ;}
	.st36{fill:none;stroke:#e95420;stroke-width:2;stroke-miterlimit:10;}
	.st37{fill:#e95420;}
	.st38{fill-rule:evenodd;clip-rule:evenodd;fill:#e95420;stroke:#e95420;stroke-miterlimit:10;}
	.st39{fill:#e95420;}
</style>
<g id="SvgjsG1166">
	<g id="SvgjsG1165">
		<polygon id="SvgjsPolygon1164" class="st0" points="172.8,3.3 339.8,86.8 339.8,305.8 172.8,389.3 5.9,305.8 5.9,86.8   "></polygon>
	</g>
	
	<g class="st32" id="SvgjsG1163">
		<g id="SvgjsG1162">
			<g class="st33" id="SvgjsG1161">
				<defs id="SvgjsDefs1160">
					<polygon id="SvgjsPolygon1159" points="172.8,3.3 339.8,86.8 339.8,305.8 172.8,389.3 5.9,305.8 5.9,86.8      "></polygon>
				</defs>
				<clipPath id="SvgjsClipPath1158">
					<use xlink:href="#SVGID_65_" style="display:none;overflow:visible;" id="SvgjsUse1157"></use>
				</clipPath>
				<rect id="SvgjsRect1156" x="-0.6" y="281.2" class="st34" width="356" height="124.3" clip-path="url(#SVGID_66_)"></rect>
			</g>
		</g>
	</g>
	
	<g id="SvgjsG1155">
		<polygon id="SvgjsPolygon1154" class="st36" points="172.8,3.3 339.8,86.8 339.8,305.8 172.8,389.3 5.9,305.8 5.9,86.8   "></polygon>
	</g>
</g>

<polygon class="st38" points="71.3,246.6 136.1,246.6 136.1,181.8 138.1,181.8 138.1,248.5 71.3,248.5 " id="SvgjsPolygon1153" transform="matrix(1.4716821,0,0,1.7265394,-75.708607,-124.12656)" style="fill:#e95420;stroke:#e95420;stroke-opacity:1"></polygon>
<path class="st38" d="m 113.1082,287.82575 h -11.47912 v -59.22031 h 11.47912 z m 2.94337,3.45307 v -65.9538 H 98.83289 v 65.9538 z" id="SvgjsPath1152" style="stroke-width:1.59403;fill:#e95420;stroke:#e95420;stroke-opacity:1"></path>
<path class="st38" d="M 90.002793,287.82575 H 78.523669 v -94.78702 h 11.479124 z m 2.943362,3.45307 V 189.58565 h -17.21868 v 101.69317 z" id="SvgjsPath1151" style="stroke-width:1.59403;fill:#e95420;stroke:#e95420;stroke-opacity:1"></path>
<path class="st38" d="M 66.75021,287.82575 H 55.271096 V 228.60544 H 66.75021 Z m 2.796206,3.45307 v -65.9538 H 52.4749 v 65.9538 z" id="SvgjsPath1150" style="stroke-width:1.59403;fill:#e95420;stroke:#e95420;stroke-opacity:1"></path>
<path class="st38" d="m 43.644808,287.82575 h -11.47912 v -30.3871 h 11.47912 z m 2.796195,-33.84017 H 29.222324 v 37.29324 h 17.218679 z" id="SvgjsPath1149" style="stroke-width:1.59403;fill:#e95420;stroke:#e95420;stroke-opacity:1"></path>
<g id="SvgjsG1148" transform="matrix(1.4716821,0,0,1.7265394,-75.708607,-124.12656)" style="fill:#e95420;stroke:#e95420;stroke-opacity:1">
	<path class="st39" d="m 170.4,221.2 c 0,2.8 -0.6,5.2 -1.8,7.2 -1.2,1.9 -2.9,3.5 -5.1,4.7 -1.8,1 -3.9,1.7 -6.1,2.1 -2.2,0.4 -4.4,0.6 -6.3,0.6 l 0.1,12.5 h -4.4 c 0,-0.4 0,-2.8 0.1,-7.6 0,-4.7 0,-9.5 0,-14.2 0,-2.4 0,-5.1 0,-8.3 0,-3.2 0,-6.6 -0.1,-10.2 0.6,0 1.2,0 1.7,0 0.6,0 1,0 1.3,0 3.8,0 6.8,0.2 8.9,0.6 2.1,0.4 4,1.1 5.7,2.2 1.8,1.1 3.3,2.6 4.4,4.3 0.9,1.7 1.6,3.8 1.6,6.1 z m -4.4,0.1 c 0,-1.8 -0.4,-3.4 -1.2,-4.7 -0.9,-1.3 -1.9,-2.4 -3.3,-3.2 -1.2,-0.7 -2.6,-1.2 -4.1,-1.5 -1.6,-0.4 -3.3,-0.5 -5.1,-0.5 -0.2,0 -0.4,0 -0.6,0 -0.2,0 -0.4,0 -0.6,0 0,0.4 0,1.3 0,3.3 0,1.8 0,5 0,9.6 0,1 0,2.3 0,4 0,1.7 0,3 0,4.1 1.7,0 3.4,-0.1 5.1,-0.5 1.7,-0.4 3.2,-0.7 4.3,-1.3 1.8,-0.9 3.3,-2.1 4.3,-3.7 1,-1.6 1.2,-3.2 1.2,-5.6 z" id="SvgjsPath1147" style="fill:#e95420;stroke:#e95420;stroke-opacity:1"></path>
	<path class="st39" d="M 182.3,236 H 178 c 0,-0.2 0,-2.9 0.1,-8 0,-5.1 0,-9.4 0,-12.8 0,-2.2 0,-4.9 0,-8.3 0,-3.3 0,-7.1 -0.1,-11.2 h 4.3 c 0,2.8 -0.1,6.1 -0.1,9.7 0,3.7 0,6.8 0,9.4 0,5.5 0,10.4 0,14.5 0,4.1 0.1,6.4 0.1,6.7 z" id="SvgjsPath1146" style="fill:#e95420;stroke:#e95420;stroke-opacity:1"></path>
	<path class="st39" d="m 217,222.1 c 0,2.1 -0.4,4.1 -1.1,6.1 -0.7,1.9 -1.8,3.5 -3.3,5 -1.2,1.1 -2.6,2.1 -4,2.7 -1.5,0.6 -3.2,0.9 -5,0.9 -1.7,0 -3.4,-0.2 -4.9,-0.9 -1.6,-0.6 -2.9,-1.5 -4.1,-2.6 -1.3,-1.3 -2.4,-2.9 -3.2,-4.9 -0.7,-1.9 -1.1,-4 -1.1,-6.2 0,-2.1 0.4,-4 1,-5.8 0.6,-1.7 1.7,-3.3 3,-4.7 1.2,-1.2 2.7,-2.3 4.3,-2.9 1.6,-0.7 3.3,-1 5.1,-1 1.9,0 3.7,0.4 5.1,1 1.6,0.6 2.9,1.6 4.1,2.8 1.3,1.5 2.4,3 3,4.9 0.7,1.4 1.1,3.5 1.1,5.6 z m -4.4,0.2 c 0,-1.7 -0.2,-3.4 -0.9,-5 -0.6,-1.6 -1.5,-3 -2.6,-4.1 -0.7,-0.7 -1.6,-1.2 -2.6,-1.6 -1,-0.4 -1.9,-0.6 -3,-0.6 -1.2,0 -2.3,0.2 -3.3,0.6 -1,0.4 -1.8,1 -2.7,1.8 -1,1 -1.7,2.2 -2.3,3.8 -0.6,1.6 -0.9,3.2 -0.9,4.7 0,1.8 0.2,3.5 0.9,5.1 0.6,1.6 1.5,2.9 2.7,4 0.7,0.6 1.6,1.1 2.4,1.5 1,0.4 1.9,0.5 2.9,0.5 1.1,0 2.2,-0.2 3.2,-0.6 1,-0.4 1.8,-1 2.6,-1.7 1.1,-1.1 1.8,-2.3 2.4,-3.8 0.7,-1.4 1.2,-3 1.2,-4.6 z" id="SvgjsPath1145" style="fill:#e95420;stroke:#e95420;stroke-opacity:1"></path>
	<path class="st39" d="M 239.5,232.5 239,236 c -0.1,0 -0.5,0 -1,0 -0.5,0 -1,0 -1.3,0 -3.8,0 -6.6,-0.7 -8.5,-2.3 -1.9,-1.6 -2.9,-3.9 -2.9,-7.2 0,-2.1 0,-4.1 0,-6.5 0,-2.3 0,-5.2 0,-8.6 h -4.6 v -3.2 h 4.9 v -6.5 h 4 v 6.5 h 9.7 v 3.2 h -9.7 c 0,0.4 0,1.5 0,3.4 0,1.9 0,3.3 0,4.3 0,0.7 0,1.7 0,2.8 0,1.1 0,2.4 0,4 0,2.3 0.6,4.1 1.9,5.1 1.2,1.1 3.3,1.6 6,1.6 0.4,0 0.7,0 1.2,0 0.5,-0.1 0.7,-0.1 0.8,-0.1 z" id="SvgjsPath1144" style="fill:#e95420;stroke:#e95420;stroke-opacity:1"></path>
	<path class="st39" d="m 269.5,235.8 c -0.2,0 -1.9,0 -5.1,0 -3.2,0 -5.5,0 -7.1,0 -2.2,0 -4.7,0 -7.8,0 -3,0 -4.6,0 -4.7,0 l -1.1,-3 c 1.6,-0.7 3.3,-1.7 5.4,-2.8 2.1,-1.1 3.7,-2.2 4.7,-3 1.8,-1.3 3.2,-2.7 4.1,-3.9 0.9,-1.2 1.5,-2.7 1.5,-4.5 0,-1.3 -0.2,-2.4 -0.9,-3.4 -0.6,-1 -1.5,-1.7 -2.6,-2.2 -1,-0.5 -2.1,-0.9 -3.4,-1.1 -1.2,-0.2 -2.6,-0.4 -4,-0.4 -0.5,0 -1.1,0 -1.7,0 -0.6,0 -1.2,0 -1.6,0.1 l 0.4,-3.7 c 0.4,0 0.7,0 1.3,-0.1 0.6,0 1.2,0 1.9,0 1.9,0 3.8,0.1 5.4,0.4 1.6,0.3 3,0.7 4.3,1.3 1.7,0.9 2.9,1.9 3.9,3.3 1,1.3 1.3,3 1.3,5 0,1.6 -0.4,3.2 -1.1,4.6 -0.7,1.5 -1.7,2.7 -2.8,3.8 -1.1,1.1 -2.6,2.2 -4.1,3.3 -1.7,1.1 -3.3,1.9 -4.9,2.8 v 0.1 c 0.7,-0.1 1.7,-0.1 2.9,-0.2 1.2,-0.1 2.3,-0.1 3.5,-0.1 2.3,0 4.9,-0.1 7.6,-0.1 2.8,0 4.3,0 4.5,0 v 3.9 h 0.2 z" id="SvgjsPath1143" style="fill:#e95420;stroke:#e95420;stroke-opacity:1"></path>
</g>
</svg><style>@media (prefers-color-scheme: light) { :root { filter: none; } }
@media (prefers-color-scheme: dark) { :root { filter: none; } }
</style></svg>