<?xml version="1.0" encoding="UTF-8" standalone="no"?>
<!-- Generator: Adobe Illustrator 25.2.3, SVG Export Plug-In . SVG Version: 6.00 Build 0)  -->

<svg
   version="1.1"
   id="Layer_1"
   x="0px"
   y="0px"
   viewBox="0 0 345 395.7"
   style="enable-background:new 0 0 345 395.7;"
   xml:space="preserve"
   sodipodi:docname="logo.svg"
   inkscape:version="1.3.2 (091e20e, 2023-11-25)"
   xmlns:inkscape="http://www.inkscape.org/namespaces/inkscape"
   xmlns:sodipodi="http://sodipodi.sourceforge.net/DTD/sodipodi-0.dtd"
   xmlns:xlink="http://www.w3.org/1999/xlink"
   xmlns="http://www.w3.org/2000/svg"
   xmlns:svg="http://www.w3.org/2000/svg"><defs
   id="defs112" /><sodipodi:namedview
   id="namedview112"
   pagecolor="#ffffff"
   bordercolor="#000000"
   borderopacity="0.25"
   inkscape:showpageshadow="2"
   inkscape:pageopacity="0.0"
   inkscape:pagecheckerboard="0"
   inkscape:deskcolor="#d1d1d1"
   inkscape:zoom="1.3220161"
   inkscape:cx="145.23272"
   inkscape:cy="195.15647"
   inkscape:window-width="1592"
   inkscape:window-height="761"
   inkscape:window-x="73"
   inkscape:window-y="224"
   inkscape:window-maximized="0"
   inkscape:current-layer="Layer_1" />
<style
   type="text/css"
   id="style1">
	.st0{fill:#FFFFFF;}
	.st1{clip-path:url(#SVGID_4_);}
	.st2{clip-path:url(#SVGID_6_);fill:#B4527F;}
	.st3{clip-path:url(#SVGID_8_);fill:#B4527F;}
	.st4{clip-path:url(#SVGID_10_);fill:#E4D559;}
	.st5{clip-path:url(#SVGID_12_);fill:#B4527F;}
	.st6{clip-path:url(#SVGID_14_);fill:#49647D;}
	.st7{clip-path:url(#SVGID_16_);fill:#49647D;}
	.st8{clip-path:url(#SVGID_18_);fill:#CEB9D6;}
	.st9{clip-path:url(#SVGID_20_);fill:#E4D559;}
	.st10{clip-path:url(#SVGID_22_);fill:#B4527F;}
	.st11{clip-path:url(#SVGID_24_);fill:#E4D559;}
	.st12{clip-path:url(#SVGID_26_);fill:#FFFFFF;}
	.st13{clip-path:url(#SVGID_28_);fill:#49647D;}
	.st14{clip-path:url(#SVGID_30_);fill:#FFFFFF;}
	.st15{clip-path:url(#SVGID_32_);fill:#FFFFFF;}
	.st16{clip-path:url(#SVGID_34_);fill:#E4D559;}
	.st17{clip-path:url(#SVGID_36_);fill:#E4D559;}
	.st18{clip-path:url(#SVGID_38_);fill:#E4D559;}
	.st19{clip-path:url(#SVGID_40_);fill:#E4D559;}
	.st20{clip-path:url(#SVGID_42_);fill:#E4D559;}
	.st21{clip-path:url(#SVGID_44_);fill:#93984C;}
	.st22{clip-path:url(#SVGID_46_);fill:#93984C;}
	.st23{clip-path:url(#SVGID_48_);fill:#93984C;}
	.st24{clip-path:url(#SVGID_50_);fill:#49647D;}
	.st25{clip-path:url(#SVGID_52_);fill:#49647D;}
	.st26{clip-path:url(#SVGID_54_);fill:#49647D;}
	.st27{clip-path:url(#SVGID_56_);fill:#CEB9D6;}
	.st28{clip-path:url(#SVGID_58_);fill:#CEB9D6;}
	.st29{clip-path:url(#SVGID_60_);fill:#93984C;}
	.st30{clip-path:url(#SVGID_62_);fill:#B4527F;}
	.st31{clip-path:url(#SVGID_64_);fill:#FFFFFF;}
	.st32{display:none;}
	.st33{display:inline;}
	.st34{display:none;opacity:0.9;clip-path:url(#SVGID_66_);fill:#FFFFFF;enable-background:new    ;}
	.st35{opacity:0.875;clip-path:url(#SVGID_68_);fill:#FFFFFF;enable-background:new    ;}
	.st36{fill:none;stroke:#49647D;stroke-width:2;stroke-miterlimit:10;}
	.st37{fill:#49647D;}
	.st38{fill-rule:evenodd;clip-rule:evenodd;fill:#B4527F;stroke:#B4527F;stroke-miterlimit:10;}
	.st39{fill:#B4527F;}
</style>
<g
   id="logo_1_">
	<g
   id="g1">
		<polygon
   id="SVGID_1_"
   class="st0"
   points="172.8,3.3 339.8,86.8 339.8,305.8 172.8,389.3 5.9,305.8 5.9,86.8   " />
	</g>
	
	<g
   class="st32"
   id="g97">
		<g
   id="g96">
			<g
   class="st33"
   id="g95">
				<defs
   id="defs94">
					<polygon
   id="SVGID_65_"
   points="172.8,3.3 339.8,86.8 339.8,305.8 172.8,389.3 5.9,305.8 5.9,86.8      " />
				</defs>
				<clipPath
   id="SVGID_66_">
					<use
   xlink:href="#SVGID_65_"
   style="display:none;overflow:visible;"
   id="use94" />
				</clipPath>
				<rect
   id="lower_opac"
   x="-0.6"
   y="281.2"
   class="st34"
   width="356"
   height="124.3"
   clip-path="url(#SVGID_66_)" />
			</g>
		</g>
	</g>
	
	<g
   id="g101">
		<polygon
   id="SVGID_2_"
   class="st36"
   points="172.8,3.3 339.8,86.8 339.8,305.8 172.8,389.3 5.9,305.8 5.9,86.8   " />
	</g>
</g>

<polygon
   class="st38"
   points="71.3,246.6 136.1,246.6 136.1,181.8 138.1,181.8 138.1,248.5 71.3,248.5 "
   id="polygon104"
   transform="matrix(1.4716821,0,0,1.7265394,-75.708607,-124.12656)"
   style="fill:#000080;stroke:#000080;stroke-opacity:1" />
<path
   class="st38"
   d="m 113.1082,287.82575 h -11.47912 v -59.22031 h 11.47912 z m 2.94337,3.45307 v -65.9538 H 98.83289 v 65.9538 z"
   id="path104"
   style="stroke-width:1.59403;fill:#000080;stroke:#000080;stroke-opacity:1" />
<path
   class="st38"
   d="M 90.002793,287.82575 H 78.523669 v -94.78702 h 11.479124 z m 2.943362,3.45307 V 189.58565 h -17.21868 v 101.69317 z"
   id="path105"
   style="stroke-width:1.59403;fill:#000080;stroke:#000080;stroke-opacity:1" />
<path
   class="st38"
   d="M 66.75021,287.82575 H 55.271096 V 228.60544 H 66.75021 Z m 2.796206,3.45307 v -65.9538 H 52.4749 v 65.9538 z"
   id="path106"
   style="stroke-width:1.59403;fill:#000080;stroke:#000080;stroke-opacity:1" />
<path
   class="st38"
   d="m 43.644808,287.82575 h -11.47912 v -30.3871 h 11.47912 z m 2.796195,-33.84017 H 29.222324 v 37.29324 h 17.218679 z"
   id="path107"
   style="stroke-width:1.59403;fill:#000080;stroke:#000080;stroke-opacity:1" />
<g
   id="g112"
   transform="matrix(1.4716821,0,0,1.7265394,-75.708607,-124.12656)"
   style="fill:#000080;stroke:#000080;stroke-opacity:1">
	<path
   class="st39"
   d="m 170.4,221.2 c 0,2.8 -0.6,5.2 -1.8,7.2 -1.2,1.9 -2.9,3.5 -5.1,4.7 -1.8,1 -3.9,1.7 -6.1,2.1 -2.2,0.4 -4.4,0.6 -6.3,0.6 l 0.1,12.5 h -4.4 c 0,-0.4 0,-2.8 0.1,-7.6 0,-4.7 0,-9.5 0,-14.2 0,-2.4 0,-5.1 0,-8.3 0,-3.2 0,-6.6 -0.1,-10.2 0.6,0 1.2,0 1.7,0 0.6,0 1,0 1.3,0 3.8,0 6.8,0.2 8.9,0.6 2.1,0.4 4,1.1 5.7,2.2 1.8,1.1 3.3,2.6 4.4,4.3 0.9,1.7 1.6,3.8 1.6,6.1 z m -4.4,0.1 c 0,-1.8 -0.4,-3.4 -1.2,-4.7 -0.9,-1.3 -1.9,-2.4 -3.3,-3.2 -1.2,-0.7 -2.6,-1.2 -4.1,-1.5 -1.6,-0.4 -3.3,-0.5 -5.1,-0.5 -0.2,0 -0.4,0 -0.6,0 -0.2,0 -0.4,0 -0.6,0 0,0.4 0,1.3 0,3.3 0,1.8 0,5 0,9.6 0,1 0,2.3 0,4 0,1.7 0,3 0,4.1 1.7,0 3.4,-0.1 5.1,-0.5 1.7,-0.4 3.2,-0.7 4.3,-1.3 1.8,-0.9 3.3,-2.1 4.3,-3.7 1,-1.6 1.2,-3.2 1.2,-5.6 z"
   id="path108"
   style="fill:#000080;stroke:#000080;stroke-opacity:1" />
	<path
   class="st39"
   d="M 182.3,236 H 178 c 0,-0.2 0,-2.9 0.1,-8 0,-5.1 0,-9.4 0,-12.8 0,-2.2 0,-4.9 0,-8.3 0,-3.3 0,-7.1 -0.1,-11.2 h 4.3 c 0,2.8 -0.1,6.1 -0.1,9.7 0,3.7 0,6.8 0,9.4 0,5.5 0,10.4 0,14.5 0,4.1 0.1,6.4 0.1,6.7 z"
   id="path109"
   style="fill:#000080;stroke:#000080;stroke-opacity:1" />
	<path
   class="st39"
   d="m 217,222.1 c 0,2.1 -0.4,4.1 -1.1,6.1 -0.7,1.9 -1.8,3.5 -3.3,5 -1.2,1.1 -2.6,2.1 -4,2.7 -1.5,0.6 -3.2,0.9 -5,0.9 -1.7,0 -3.4,-0.2 -4.9,-0.9 -1.6,-0.6 -2.9,-1.5 -4.1,-2.6 -1.3,-1.3 -2.4,-2.9 -3.2,-4.9 -0.7,-1.9 -1.1,-4 -1.1,-6.2 0,-2.1 0.4,-4 1,-5.8 0.6,-1.7 1.7,-3.3 3,-4.7 1.2,-1.2 2.7,-2.3 4.3,-2.9 1.6,-0.7 3.3,-1 5.1,-1 1.9,0 3.7,0.4 5.1,1 1.6,0.6 2.9,1.6 4.1,2.8 1.3,1.5 2.4,3 3,4.9 0.7,1.4 1.1,3.5 1.1,5.6 z m -4.4,0.2 c 0,-1.7 -0.2,-3.4 -0.9,-5 -0.6,-1.6 -1.5,-3 -2.6,-4.1 -0.7,-0.7 -1.6,-1.2 -2.6,-1.6 -1,-0.4 -1.9,-0.6 -3,-0.6 -1.2,0 -2.3,0.2 -3.3,0.6 -1,0.4 -1.8,1 -2.7,1.8 -1,1 -1.7,2.2 -2.3,3.8 -0.6,1.6 -0.9,3.2 -0.9,4.7 0,1.8 0.2,3.5 0.9,5.1 0.6,1.6 1.5,2.9 2.7,4 0.7,0.6 1.6,1.1 2.4,1.5 1,0.4 1.9,0.5 2.9,0.5 1.1,0 2.2,-0.2 3.2,-0.6 1,-0.4 1.8,-1 2.6,-1.7 1.1,-1.1 1.8,-2.3 2.4,-3.8 0.7,-1.4 1.2,-3 1.2,-4.6 z"
   id="path110"
   style="fill:#000080;stroke:#000080;stroke-opacity:1" />
	<path
   class="st39"
   d="M 239.5,232.5 239,236 c -0.1,0 -0.5,0 -1,0 -0.5,0 -1,0 -1.3,0 -3.8,0 -6.6,-0.7 -8.5,-2.3 -1.9,-1.6 -2.9,-3.9 -2.9,-7.2 0,-2.1 0,-4.1 0,-6.5 0,-2.3 0,-5.2 0,-8.6 h -4.6 v -3.2 h 4.9 v -6.5 h 4 v 6.5 h 9.7 v 3.2 h -9.7 c 0,0.4 0,1.5 0,3.4 0,1.9 0,3.3 0,4.3 0,0.7 0,1.7 0,2.8 0,1.1 0,2.4 0,4 0,2.3 0.6,4.1 1.9,5.1 1.2,1.1 3.3,1.6 6,1.6 0.4,0 0.7,0 1.2,0 0.5,-0.1 0.7,-0.1 0.8,-0.1 z"
   id="path111"
   style="fill:#000080;stroke:#000080;stroke-opacity:1" />
	<path
   class="st39"
   d="m 269.5,235.8 c -0.2,0 -1.9,0 -5.1,0 -3.2,0 -5.5,0 -7.1,0 -2.2,0 -4.7,0 -7.8,0 -3,0 -4.6,0 -4.7,0 l -1.1,-3 c 1.6,-0.7 3.3,-1.7 5.4,-2.8 2.1,-1.1 3.7,-2.2 4.7,-3 1.8,-1.3 3.2,-2.7 4.1,-3.9 0.9,-1.2 1.5,-2.7 1.5,-4.5 0,-1.3 -0.2,-2.4 -0.9,-3.4 -0.6,-1 -1.5,-1.7 -2.6,-2.2 -1,-0.5 -2.1,-0.9 -3.4,-1.1 -1.2,-0.2 -2.6,-0.4 -4,-0.4 -0.5,0 -1.1,0 -1.7,0 -0.6,0 -1.2,0 -1.6,0.1 l 0.4,-3.7 c 0.4,0 0.7,0 1.3,-0.1 0.6,0 1.2,0 1.9,0 1.9,0 3.8,0.1 5.4,0.4 1.6,0.3 3,0.7 4.3,1.3 1.7,0.9 2.9,1.9 3.9,3.3 1,1.3 1.3,3 1.3,5 0,1.6 -0.4,3.2 -1.1,4.6 -0.7,1.5 -1.7,2.7 -2.8,3.8 -1.1,1.1 -2.6,2.2 -4.1,3.3 -1.7,1.1 -3.3,1.9 -4.9,2.8 v 0.1 c 0.7,-0.1 1.7,-0.1 2.9,-0.2 1.2,-0.1 2.3,-0.1 3.5,-0.1 2.3,0 4.9,-0.1 7.6,-0.1 2.8,0 4.3,0 4.5,0 v 3.9 h 0.2 z"
   id="path112"
   style="fill:#000080;stroke:#000080;stroke-opacity:1" />
</g>
</svg>
